<svg width="318" height="395" viewBox="0 0 318 395" fill="none" xmlns="http://www.w3.org/2000/svg">
<path d="M163.509 96.921C173.804 90.9775 173.804 76.1187 163.509 70.1752L145.8 59.9509C141.023 57.1925 135.136 57.1925 130.359 59.9509L96.7733 79.3413C91.9956 82.0996 86.1093 82.0996 81.3317 79.3412L62.0884 68.2311C51.7939 62.2876 51.7939 47.4288 62.0883 41.4853L130.359 2.06882C135.137 -0.689597 141.023 -0.689606 145.801 2.06879L229.57 50.4328C234.348 53.1912 237.291 58.2889 237.291 63.8057L237.291 153.221C237.291 160.404 229.514 164.894 223.293 161.302C217.071 157.71 209.295 162.2 209.295 169.384L209.295 251.221C209.295 262.026 220.992 268.78 230.35 263.377C234.693 260.87 237.369 256.236 237.369 251.22L237.368 177.894C237.368 172.377 240.311 167.28 245.089 164.521L294.443 136.026C304.738 130.083 317.606 137.512 317.606 149.399L317.606 296.735C317.606 302.251 314.663 307.349 309.885 310.108L166.524 392.877C161.747 395.635 155.86 395.635 151.083 392.877L7.72107 310.107C2.94341 307.349 0.000229603 302.251 0.000224304 296.734L0 149.129C-1.7563e-05 137.242 12.8681 129.812 23.1625 135.756L72.5155 164.25C77.2932 167.008 80.2363 172.106 80.2364 177.623L80.2373 250.41C80.2374 255.926 83.1805 261.024 87.9582 263.782L151.378 300.398C155.973 303.051 161.634 303.051 166.229 300.398C176.129 294.682 176.129 280.391 166.229 274.675L117.861 246.75C113.083 243.991 110.14 238.894 110.14 233.377L110.14 136.649C110.14 131.132 113.083 126.034 117.861 123.276L163.509 96.921Z" fill="url(#fav_grad)"/>
<defs>
<linearGradient id="fav_grad" x1="4.55094" y1="114.397" x2="322.157" y2="297.767" gradientUnits="userSpaceOnUse">
<stop stop-color="#FF0000"/>
<stop offset="1" stop-color="#F87000"/>
</linearGradient>
</defs>
</svg>
