<svg id="pxgrad" viewBox="0 0 128 128" xmlns="http://www.w3.org/2000/svg" shape-rendering="crispEdges" preserveAspectRatio="none"><rect x="0" y="0" width="8" height="8" fill="rgb(255, 26, 0)"/><rect x="8" y="0" width="8" height="8" fill="rgb(255, 29, 0)"/><rect x="16" y="0" width="8" height="8" fill="rgb(254, 32, 0)"/><rect x="24" y="0" width="8" height="8" fill="rgb(254, 35, 0)"/><rect x="32" y="0" width="8" height="8" fill="rgb(254, 39, 0)"/><rect x="40" y="0" width="8" height="8" fill="rgb(254, 42, 0)"/><rect x="48" y="0" width="8" height="8" fill="rgb(253, 45, 0)"/><rect x="56" y="0" width="8" height="8" fill="rgb(253, 48, 0)"/><rect x="64" y="0" width="8" height="8" fill="rgb(253, 51, 0)"/><rect x="72" y="0" width="8" height="8" fill="rgb(253, 54, 0)"/><rect x="80" y="0" width="8" height="8" fill="rgb(252, 58, 0)"/><rect x="88" y="0" width="8" height="8" fill="rgb(252, 61, 0)"/><rect x="96" y="0" width="8" height="8" fill="rgb(252, 64, 0)"/><rect x="104" y="0" width="8" height="8" fill="rgb(252, 67, 0)"/><rect x="112" y="0" width="8" height="8" fill="rgb(251, 70, 0)"/><rect x="120" y="0" width="8" height="8" fill="rgb(251, 73, 0)"/><rect x="0" y="8" width="8" height="8" fill="rgb(255, 29, 0)"/><rect x="8" y="8" width="8" height="8" fill="rgb(255, 32, 0)"/><rect x="16" y="8" width="8" height="8" fill="rgb(254, 35, 0)"/><rect x="24" y="8" width="8" height="8" fill="rgb(254, 38, 0)"/><rect x="32" y="8" width="8" height="8" fill="rgb(254, 41, 0)"/><rect x="40" y="8" width="8" height="8" fill="rgb(254, 44, 0)"/><rect x="48" y="8" width="8" height="8" fill="rgb(253, 48, 0)"/><rect x="56" y="8" width="8" height="8" fill="rgb(253, 51, 0)"/><rect x="64" y="8" width="8" height="8" fill="rgb(253, 54, 0)"/><rect x="72" y="8" width="8" height="8" fill="rgb(252, 57, 0)"/><rect x="80" y="8" width="8" height="8" fill="rgb(252, 60, 0)"/><rect x="88" y="8" width="8" height="8" fill="rgb(252, 63, 0)"/><rect x="96" y="8" width="8" height="8" fill="rgb(252, 66, 0)"/><rect x="104" y="8" width="8" height="8" fill="rgb(251, 70, 0)"/><rect x="112" y="8" width="8" height="8" fill="rgb(251, 73, 0)"/><rect x="120" y="8" width="8" height="8" fill="rgb(251, 76, 0)"/><rect x="0" y="16" width="8" height="8" fill="rgb(255, 31, 0)"/><rect x="8" y="16" width="8" height="8" fill="rgb(254, 34, 0)"/><rect x="16" y="16" width="8" height="8" fill="rgb(254, 37, 0)"/><rect x="24" y="16" width="8" height="8" fill="rgb(254, 41, 0)"/><rect x="32" y="16" width="8" height="8" fill="rgb(254, 44, 0)"/><rect x="40" y="16" width="8" height="8" fill="rgb(253, 47, 0)"/><rect x="48" y="16" width="8" height="8" fill="rgb(253, 50, 0)"/><rect x="56" y="16" width="8" height="8" fill="rgb(253, 53, 0)"/><rect x="64" y="16" width="8" height="8" fill="rgb(253, 56, 0)"/><rect x="72" y="16" width="8" height="8" fill="rgb(252, 60, 0)"/><rect x="80" y="16" width="8" height="8" fill="rgb(252, 63, 0)"/><rect x="88" y="16" width="8" height="8" fill="rgb(252, 66, 0)"/><rect x="96" y="16" width="8" height="8" fill="rgb(252, 69, 0)"/><rect x="104" y="16" width="8" height="8" fill="rgb(251, 72, 0)"/><rect x="112" y="16" width="8" height="8" fill="rgb(251, 75, 0)"/><rect x="120" y="16" width="8" height="8" fill="rgb(251, 78, 0)"/><rect x="0" y="24" width="8" height="8" fill="rgb(254, 34, 0)"/><rect x="8" y="24" width="8" height="8" fill="rgb(254, 37, 0)"/><rect x="16" y="24" width="8" height="8" fill="rgb(254, 40, 0)"/><rect x="24" y="24" width="8" height="8" fill="rgb(254, 43, 0)"/><rect x="32" y="24" width="8" height="8" fill="rgb(253, 46, 0)"/><rect x="40" y="24" width="8" height="8" fill="rgb(253, 50, 0)"/><rect x="48" y="24" width="8" height="8" fill="rgb(253, 53, 0)"/><rect x="56" y="24" width="8" height="8" fill="rgb(253, 56, 0)"/><rect x="64" y="24" width="8" height="8" fill="rgb(252, 59, 0)"/><rect x="72" y="24" width="8" height="8" fill="rgb(252, 62, 0)"/><rect x="80" y="24" width="8" height="8" fill="rgb(252, 65, 0)"/><rect x="88" y="24" width="8" height="8" fill="rgb(252, 68, 0)"/><rect x="96" y="24" width="8" height="8" fill="rgb(251, 72, 0)"/><rect x="104" y="24" width="8" height="8" fill="rgb(251, 75, 0)"/><rect x="112" y="24" width="8" height="8" fill="rgb(251, 78, 0)"/><rect x="120" y="24" width="8" height="8" fill="rgb(251, 81, 0)"/><rect x="0" y="32" width="8" height="8" fill="rgb(254, 36, 0)"/><rect x="8" y="32" width="8" height="8" fill="rgb(254, 39, 0)"/><rect x="16" y="32" width="8" height="8" fill="rgb(254, 43, 0)"/><rect x="24" y="32" width="8" height="8" fill="rgb(253, 46, 0)"/><rect x="32" y="32" width="8" height="8" fill="rgb(253, 49, 0)"/><rect x="40" y="32" width="8" height="8" fill="rgb(253, 52, 0)"/><rect x="48" y="32" width="8" height="8" fill="rgb(253, 55, 0)"/><rect x="56" y="32" width="8" height="8" fill="rgb(252, 58, 0)"/><rect x="64" y="32" width="8" height="8" fill="rgb(252, 62, 0)"/><rect x="72" y="32" width="8" height="8" fill="rgb(252, 65, 0)"/><rect x="80" y="32" width="8" height="8" fill="rgb(252, 68, 0)"/><rect x="88" y="32" width="8" height="8" fill="rgb(251, 71, 0)"/><rect x="96" y="32" width="8" height="8" fill="rgb(251, 74, 0)"/><rect x="104" y="32" width="8" height="8" fill="rgb(251, 77, 0)"/><rect x="112" y="32" width="8" height="8" fill="rgb(251, 80, 0)"/><rect x="120" y="32" width="8" height="8" fill="rgb(250, 84, 0)"/><rect x="0" y="40" width="8" height="8" fill="rgb(254, 39, 0)"/><rect x="8" y="40" width="8" height="8" fill="rgb(254, 42, 0)"/><rect x="16" y="40" width="8" height="8" fill="rgb(253, 45, 0)"/><rect x="24" y="40" width="8" height="8" fill="rgb(253, 48, 0)"/><rect x="32" y="40" width="8" height="8" fill="rgb(253, 52, 0)"/><rect x="40" y="40" width="8" height="8" fill="rgb(253, 55, 0)"/><rect x="48" y="40" width="8" height="8" fill="rgb(252, 58, 0)"/><rect x="56" y="40" width="8" height="8" fill="rgb(252, 61, 0)"/><rect x="64" y="40" width="8" height="8" fill="rgb(252, 64, 0)"/><rect x="72" y="40" width="8" height="8" fill="rgb(252, 67, 0)"/><rect x="80" y="40" width="8" height="8" fill="rgb(251, 70, 0)"/><rect x="88" y="40" width="8" height="8" fill="rgb(251, 74, 0)"/><rect x="96" y="40" width="8" height="8" fill="rgb(251, 77, 0)"/><rect x="104" y="40" width="8" height="8" fill="rgb(251, 80, 0)"/><rect x="112" y="40" width="8" height="8" fill="rgb(250, 83, 0)"/><rect x="120" y="40" width="8" height="8" fill="rgb(250, 86, 0)"/><rect x="0" y="48" width="8" height="8" fill="rgb(254, 41, 0)"/><rect x="8" y="48" width="8" height="8" fill="rgb(253, 45, 0)"/><rect x="16" y="48" width="8" height="8" fill="rgb(253, 48, 0)"/><rect x="24" y="48" width="8" height="8" fill="rgb(253, 51, 0)"/><rect x="32" y="48" width="8" height="8" fill="rgb(253, 54, 0)"/><rect x="40" y="48" width="8" height="8" fill="rgb(252, 57, 0)"/><rect x="48" y="48" width="8" height="8" fill="rgb(252, 60, 0)"/><rect x="56" y="48" width="8" height="8" fill="rgb(252, 64, 0)"/><rect x="64" y="48" width="8" height="8" fill="rgb(252, 67, 0)"/><rect x="72" y="48" width="8" height="8" fill="rgb(251, 70, 0)"/><rect x="80" y="48" width="8" height="8" fill="rgb(251, 73, 0)"/><rect x="88" y="48" width="8" height="8" fill="rgb(251, 76, 0)"/><rect x="96" y="48" width="8" height="8" fill="rgb(251, 79, 0)"/><rect x="104" y="48" width="8" height="8" fill="rgb(250, 82, 0)"/><rect x="112" y="48" width="8" height="8" fill="rgb(250, 86, 0)"/><rect x="120" y="48" width="8" height="8" fill="rgb(250, 89, 0)"/><rect x="0" y="56" width="8" height="8" fill="rgb(254, 44, 0)"/><rect x="8" y="56" width="8" height="8" fill="rgb(253, 47, 0)"/><rect x="16" y="56" width="8" height="8" fill="rgb(253, 50, 0)"/><rect x="24" y="56" width="8" height="8" fill="rgb(253, 54, 0)"/><rect x="32" y="56" width="8" height="8" fill="rgb(253, 57, 0)"/><rect x="40" y="56" width="8" height="8" fill="rgb(252, 60, 0)"/><rect x="48" y="56" width="8" height="8" fill="rgb(252, 63, 0)"/><rect x="56" y="56" width="8" height="8" fill="rgb(252, 66, 0)"/><rect x="64" y="56" width="8" height="8" fill="rgb(251, 69, 0)"/><rect x="72" y="56" width="8" height="8" fill="rgb(251, 72, 0)"/><rect x="80" y="56" width="8" height="8" fill="rgb(251, 76, 0)"/><rect x="88" y="56" width="8" height="8" fill="rgb(251, 79, 0)"/><rect x="96" y="56" width="8" height="8" fill="rgb(250, 82, 0)"/><rect x="104" y="56" width="8" height="8" fill="rgb(250, 85, 0)"/><rect x="112" y="56" width="8" height="8" fill="rgb(250, 88, 0)"/><rect x="120" y="56" width="8" height="8" fill="rgb(250, 91, 0)"/><rect x="0" y="64" width="8" height="8" fill="rgb(253, 47, 0)"/><rect x="8" y="64" width="8" height="8" fill="rgb(253, 50, 0)"/><rect x="16" y="64" width="8" height="8" fill="rgb(253, 53, 0)"/><rect x="24" y="64" width="8" height="8" fill="rgb(253, 56, 0)"/><rect x="32" y="64" width="8" height="8" fill="rgb(252, 59, 0)"/><rect x="40" y="64" width="8" height="8" fill="rgb(252, 62, 0)"/><rect x="48" y="64" width="8" height="8" fill="rgb(252, 66, 0)"/><rect x="56" y="64" width="8" height="8" fill="rgb(252, 69, 0)"/><rect x="64" y="64" width="8" height="8" fill="rgb(251, 72, 0)"/><rect x="72" y="64" width="8" height="8" fill="rgb(251, 75, 0)"/><rect x="80" y="64" width="8" height="8" fill="rgb(251, 78, 0)"/><rect x="88" y="64" width="8" height="8" fill="rgb(250, 81, 0)"/><rect x="96" y="64" width="8" height="8" fill="rgb(250, 84, 0)"/><rect x="104" y="64" width="8" height="8" fill="rgb(250, 88, 0)"/><rect x="112" y="64" width="8" height="8" fill="rgb(250, 91, 0)"/><rect x="120" y="64" width="8" height="8" fill="rgb(249, 94, 0)"/><rect x="0" y="72" width="8" height="8" fill="rgb(253, 49, 0)"/><rect x="8" y="72" width="8" height="8" fill="rgb(253, 52, 0)"/><rect x="16" y="72" width="8" height="8" fill="rgb(253, 56, 0)"/><rect x="24" y="72" width="8" height="8" fill="rgb(252, 59, 0)"/><rect x="32" y="72" width="8" height="8" fill="rgb(252, 62, 0)"/><rect x="40" y="72" width="8" height="8" fill="rgb(252, 65, 0)"/><rect x="48" y="72" width="8" height="8" fill="rgb(252, 68, 0)"/><rect x="56" y="72" width="8" height="8" fill="rgb(251, 71, 0)"/><rect x="64" y="72" width="8" height="8" fill="rgb(251, 74, 0)"/><rect x="72" y="72" width="8" height="8" fill="rgb(251, 78, 0)"/><rect x="80" y="72" width="8" height="8" fill="rgb(251, 81, 0)"/><rect x="88" y="72" width="8" height="8" fill="rgb(250, 84, 0)"/><rect x="96" y="72" width="8" height="8" fill="rgb(250, 87, 0)"/><rect x="104" y="72" width="8" height="8" fill="rgb(250, 90, 0)"/><rect x="112" y="72" width="8" height="8" fill="rgb(250, 93, 0)"/><rect x="120" y="72" width="8" height="8" fill="rgb(249, 97, 0)"/><rect x="0" y="80" width="8" height="8" fill="rgb(253, 52, 0)"/><rect x="8" y="80" width="8" height="8" fill="rgb(253, 55, 0)"/><rect x="16" y="80" width="8" height="8" fill="rgb(252, 58, 0)"/><rect x="24" y="80" width="8" height="8" fill="rgb(252, 61, 0)"/><rect x="32" y="80" width="8" height="8" fill="rgb(252, 64, 0)"/><rect x="40" y="80" width="8" height="8" fill="rgb(252, 68, 0)"/><rect x="48" y="80" width="8" height="8" fill="rgb(251, 71, 0)"/><rect x="56" y="80" width="8" height="8" fill="rgb(251, 74, 0)"/><rect x="64" y="80" width="8" height="8" fill="rgb(251, 77, 0)"/><rect x="72" y="80" width="8" height="8" fill="rgb(251, 80, 0)"/><rect x="80" y="80" width="8" height="8" fill="rgb(250, 83, 0)"/><rect x="88" y="80" width="8" height="8" fill="rgb(250, 86, 0)"/><rect x="96" y="80" width="8" height="8" fill="rgb(250, 90, 0)"/><rect x="104" y="80" width="8" height="8" fill="rgb(250, 93, 0)"/><rect x="112" y="80" width="8" height="8" fill="rgb(249, 96, 0)"/><rect x="120" y="80" width="8" height="8" fill="rgb(249, 99, 0)"/><rect x="0" y="88" width="8" height="8" fill="rgb(253, 54, 0)"/><rect x="8" y="88" width="8" height="8" fill="rgb(252, 58, 0)"/><rect x="16" y="88" width="8" height="8" fill="rgb(252, 61, 0)"/><rect x="24" y="88" width="8" height="8" fill="rgb(252, 64, 0)"/><rect x="32" y="88" width="8" height="8" fill="rgb(252, 67, 0)"/><rect x="40" y="88" width="8" height="8" fill="rgb(251, 70, 0)"/><rect x="48" y="88" width="8" height="8" fill="rgb(251, 73, 0)"/><rect x="56" y="88" width="8" height="8" fill="rgb(251, 76, 0)"/><rect x="64" y="88" width="8" height="8" fill="rgb(251, 80, 0)"/><rect x="72" y="88" width="8" height="8" fill="rgb(250, 83, 0)"/><rect x="80" y="88" width="8" height="8" fill="rgb(250, 86, 0)"/><rect x="88" y="88" width="8" height="8" fill="rgb(250, 89, 0)"/><rect x="96" y="88" width="8" height="8" fill="rgb(250, 92, 0)"/><rect x="104" y="88" width="8" height="8" fill="rgb(249, 95, 0)"/><rect x="112" y="88" width="8" height="8" fill="rgb(249, 99, 0)"/><rect x="120" y="88" width="8" height="8" fill="rgb(249, 102, 0)"/><rect x="0" y="96" width="8" height="8" fill="rgb(252, 57, 0)"/><rect x="8" y="96" width="8" height="8" fill="rgb(252, 60, 0)"/><rect x="16" y="96" width="8" height="8" fill="rgb(252, 63, 0)"/><rect x="24" y="96" width="8" height="8" fill="rgb(252, 66, 0)"/><rect x="32" y="96" width="8" height="8" fill="rgb(251, 70, 0)"/><rect x="40" y="96" width="8" height="8" fill="rgb(251, 73, 0)"/><rect x="48" y="96" width="8" height="8" fill="rgb(251, 76, 0)"/><rect x="56" y="96" width="8" height="8" fill="rgb(251, 79, 0)"/><rect x="64" y="96" width="8" height="8" fill="rgb(250, 82, 0)"/><rect x="72" y="96" width="8" height="8" fill="rgb(250, 85, 0)"/><rect x="80" y="96" width="8" height="8" fill="rgb(250, 88, 0)"/><rect x="88" y="96" width="8" height="8" fill="rgb(250, 92, 0)"/><rect x="96" y="96" width="8" height="8" fill="rgb(249, 95, 0)"/><rect x="104" y="96" width="8" height="8" fill="rgb(249, 98, 0)"/><rect x="112" y="96" width="8" height="8" fill="rgb(249, 101, 0)"/><rect x="120" y="96" width="8" height="8" fill="rgb(249, 104, 0)"/><rect x="0" y="104" width="8" height="8" fill="rgb(252, 60, 0)"/><rect x="8" y="104" width="8" height="8" fill="rgb(252, 63, 0)"/><rect x="16" y="104" width="8" height="8" fill="rgb(252, 66, 0)"/><rect x="24" y="104" width="8" height="8" fill="rgb(252, 69, 0)"/><rect x="32" y="104" width="8" height="8" fill="rgb(251, 72, 0)"/><rect x="40" y="104" width="8" height="8" fill="rgb(251, 75, 0)"/><rect x="48" y="104" width="8" height="8" fill="rgb(251, 78, 0)"/><rect x="56" y="104" width="8" height="8" fill="rgb(250, 82, 0)"/><rect x="64" y="104" width="8" height="8" fill="rgb(250, 85, 0)"/><rect x="72" y="104" width="8" height="8" fill="rgb(250, 88, 0)"/><rect x="80" y="104" width="8" height="8" fill="rgb(250, 91, 0)"/><rect x="88" y="104" width="8" height="8" fill="rgb(249, 94, 0)"/><rect x="96" y="104" width="8" height="8" fill="rgb(249, 97, 0)"/><rect x="104" y="104" width="8" height="8" fill="rgb(249, 101, 0)"/><rect x="112" y="104" width="8" height="8" fill="rgb(249, 104, 0)"/><rect x="120" y="104" width="8" height="8" fill="rgb(248, 107, 0)"/><rect x="0" y="112" width="8" height="8" fill="rgb(252, 62, 0)"/><rect x="8" y="112" width="8" height="8" fill="rgb(252, 65, 0)"/><rect x="16" y="112" width="8" height="8" fill="rgb(252, 68, 0)"/><rect x="24" y="112" width="8" height="8" fill="rgb(251, 72, 0)"/><rect x="32" y="112" width="8" height="8" fill="rgb(251, 75, 0)"/><rect x="40" y="112" width="8" height="8" fill="rgb(251, 78, 0)"/><rect x="48" y="112" width="8" height="8" fill="rgb(251, 81, 0)"/><rect x="56" y="112" width="8" height="8" fill="rgb(250, 84, 0)"/><rect x="64" y="112" width="8" height="8" fill="rgb(250, 87, 0)"/><rect x="72" y="112" width="8" height="8" fill="rgb(250, 90, 0)"/><rect x="80" y="112" width="8" height="8" fill="rgb(249, 94, 0)"/><rect x="88" y="112" width="8" height="8" fill="rgb(249, 97, 0)"/><rect x="96" y="112" width="8" height="8" fill="rgb(249, 100, 0)"/><rect x="104" y="112" width="8" height="8" fill="rgb(249, 103, 0)"/><rect x="112" y="112" width="8" height="8" fill="rgb(248, 106, 0)"/><rect x="120" y="112" width="8" height="8" fill="rgb(248, 109, 0)"/><rect x="0" y="120" width="8" height="8" fill="rgb(252, 65, 0)"/><rect x="8" y="120" width="8" height="8" fill="rgb(252, 68, 0)"/><rect x="16" y="120" width="8" height="8" fill="rgb(251, 71, 0)"/><rect x="24" y="120" width="8" height="8" fill="rgb(251, 74, 0)"/><rect x="32" y="120" width="8" height="8" fill="rgb(251, 77, 0)"/><rect x="40" y="120" width="8" height="8" fill="rgb(251, 80, 0)"/><rect x="48" y="120" width="8" height="8" fill="rgb(250, 84, 0)"/><rect x="56" y="120" width="8" height="8" fill="rgb(250, 87, 0)"/><rect x="64" y="120" width="8" height="8" fill="rgb(250, 90, 0)"/><rect x="72" y="120" width="8" height="8" fill="rgb(250, 93, 0)"/><rect x="80" y="120" width="8" height="8" fill="rgb(249, 96, 0)"/><rect x="88" y="120" width="8" height="8" fill="rgb(249, 99, 0)"/><rect x="96" y="120" width="8" height="8" fill="rgb(249, 103, 0)"/><rect x="104" y="120" width="8" height="8" fill="rgb(249, 106, 0)"/><rect x="112" y="120" width="8" height="8" fill="rgb(248, 109, 0)"/><rect x="120" y="120" width="8" height="8" fill="rgb(248, 112, 0)"/></svg>