<svg width="387" height="77" viewBox="0 0 387 77" fill="none" xmlns="http://www.w3.org/2000/svg">
<path d="M105.881 75.2122L117.988 2.28598H167.127L164.991 14.9982H131.27L128.421 32.3751H159.614L157.478 45.0874H126.285L123.436 62.4999H157.3L155.163 75.2122H105.881ZM157.073 75.2122L166.189 20.5175H180.611L179.044 30.1674H179.649C181.311 26.9627 183.625 24.4345 186.593 22.5828C189.584 20.7312 192.943 19.8054 196.67 19.8054C200.373 19.8054 203.388 20.743 205.715 22.6184C208.065 24.4701 209.418 26.9864 209.774 30.1674H210.344C211.958 27.0339 214.391 24.5294 217.643 22.654C220.896 20.7549 224.528 19.8054 228.54 19.8054C233.596 19.8054 237.466 21.4315 240.148 24.6837C242.831 27.936 243.673 32.5176 242.676 38.4286L236.552 75.2122H221.382L227.08 41.4197C227.531 38.3574 227.08 36.0784 225.727 34.5829C224.373 33.0636 222.486 32.3039 220.065 32.3039C217.311 32.3039 215.02 33.1823 213.192 34.939C211.365 36.6719 210.237 38.9627 209.81 41.8114L204.148 75.2122H189.442L195.21 41.0992C195.614 38.393 195.175 36.2565 193.893 34.6897C192.634 33.0992 190.747 32.3039 188.231 32.3039C186.569 32.3039 184.99 32.7312 183.495 33.5858C182.023 34.4167 180.777 35.5918 179.756 37.1111C178.735 38.6066 178.071 40.3633 177.762 42.3811L172.207 75.2122H157.073ZM238.685 75.2122L250.791 2.28598H265.961L261.474 29.7045H261.901C262.803 28.2327 264.014 26.7371 265.533 25.2178C267.076 23.6748 268.964 22.3929 271.195 21.3721C273.427 20.3276 276.073 19.8054 279.136 19.8054C283.124 19.8054 286.625 20.8499 289.64 22.9389C292.655 25.0042 294.827 28.1259 296.157 32.3039C297.486 36.4583 297.628 41.669 296.584 47.9361C295.587 54.037 293.747 59.1883 291.065 63.3901C288.406 67.5682 285.213 70.7374 281.486 72.8976C277.783 75.0341 273.854 76.1024 269.7 76.1024C266.756 76.1024 264.335 75.6157 262.435 74.6424C260.56 73.6691 259.1 72.4466 258.056 70.9747C257.011 69.4792 256.263 67.9718 255.812 66.4525H255.064L253.64 75.2122H238.685ZM258.091 47.8648C257.569 51.1171 257.557 53.9539 258.056 56.3753C258.578 58.7966 259.575 60.6839 261.047 62.037C262.542 63.3664 264.501 64.0311 266.922 64.0311C269.415 64.0311 271.622 63.3545 273.545 62.0014C275.492 60.6245 277.106 58.7254 278.388 56.3041C279.67 53.8589 280.572 51.0459 281.094 47.8648C281.593 44.7076 281.605 41.9301 281.13 39.5325C280.655 37.1348 279.682 35.2594 278.21 33.9063C276.738 32.5532 274.744 31.8766 272.228 31.8766C269.783 31.8766 267.587 32.5295 265.64 33.8351C263.717 35.1407 262.103 36.9924 260.797 39.39C259.515 41.7877 258.613 44.6126 258.091 47.8648ZM316.904 76.2804C311.301 76.2804 306.661 75.1409 302.981 72.862C299.301 70.5593 296.714 67.3071 295.218 63.1053C293.747 58.8797 293.497 53.8827 294.471 48.1141C295.42 42.488 297.331 37.5502 300.204 33.301C303.1 29.0517 306.732 25.7401 311.1 23.3662C315.468 20.9923 320.334 19.8054 325.699 19.8054C329.308 19.8054 332.572 20.387 335.492 21.5502C338.435 22.6896 340.88 24.4226 342.827 26.749C344.773 29.0517 346.103 31.936 346.815 35.4019C347.551 38.8678 347.539 42.9271 346.779 47.58L346.103 51.7462H299.954L301.414 42.3455H333.319C333.675 40.1615 333.533 38.2268 332.892 36.5413C332.251 34.8559 331.183 33.5384 329.687 32.5888C328.192 31.6155 326.352 31.1289 324.168 31.1289C321.937 31.1289 319.848 31.6748 317.901 32.7668C315.954 33.8588 314.316 35.295 312.987 37.0755C311.681 38.8322 310.839 40.7431 310.459 42.8084L308.785 52.1379C308.31 55.0103 308.405 57.396 309.07 59.2952C309.758 61.1943 310.945 62.6186 312.631 63.5682C314.316 64.494 316.453 64.9569 319.04 64.9569C320.726 64.9569 322.305 64.7195 323.776 64.2447C325.272 63.77 326.601 63.0697 327.764 62.1438C328.928 61.1943 329.877 60.0192 330.613 58.6186L344.465 59.5444C343.183 62.9154 341.236 65.859 338.625 68.3753C336.014 70.8679 332.868 72.8145 329.189 74.2151C325.533 75.592 321.438 76.2804 316.904 76.2804ZM342.12 75.2122L351.236 20.5175H365.942L364.34 30.0606H364.909C366.476 26.6659 368.577 24.1021 371.212 22.3692C373.871 20.6125 376.732 19.7341 379.794 19.7341C380.553 19.7341 381.349 19.7816 382.18 19.8766C383.034 19.9478 383.794 20.0665 384.459 20.2327L382.18 33.7283C381.515 33.4909 380.565 33.301 379.331 33.1585C378.12 32.9924 376.969 32.9093 375.877 32.9093C373.669 32.9093 371.616 33.3959 369.717 34.3692C367.818 35.3188 366.215 36.6482 364.909 38.3574C363.628 40.0666 362.785 42.0369 362.381 44.2684L357.289 75.2122H342.12Z" fill="currentColor"/>
<path d="M79.1201 3.31964C73.0367 -1.10655 64.7991 -1.10654 58.7157 3.31964L36.7652 19.2903C30.6817 23.7165 28.1362 31.5621 30.4598 38.7238L38.8442 64.565C41.1678 71.7267 47.8322 76.5755 55.3518 76.5755H82.484C90.0036 76.5755 96.668 71.7267 98.9916 64.565L107.376 38.7238C109.7 31.5621 107.154 23.7165 101.071 19.2903L79.1201 3.31964Z" fill="url(#paint0_linear_12644_262)"/>
<path d="M27.006 36.5291C23.6878 34.1094 19.1946 34.1094 15.8763 36.5291L3.90332 45.2597C0.585077 47.6794 -0.803414 51.9683 0.464042 55.8834L5.03732 70.0099C6.30478 73.925 9.93989 76.5757 14.0415 76.5757H28.8409C32.9425 76.5757 36.5776 73.9249 37.845 70.0099L42.4183 55.8834C43.6858 51.9683 42.2973 47.6794 38.979 45.2597L27.006 36.5291Z" fill="url(#paint1_linear_12644_262)"/>
<defs>
<linearGradient id="paint0_linear_12644_262" x1="107.1" y1="22.1804" x2="39.1783" y2="72.2445" gradientUnits="userSpaceOnUse">
<stop stop-color="#FF0000"/>
<stop offset="1" stop-color="#F87000"/>
</linearGradient>
<linearGradient id="paint1_linear_12644_262" x1="42.2679" y1="46.8396" x2="5.16169" y2="74.1294" gradientUnits="userSpaceOnUse">
<stop stop-color="#FF0000"/>
<stop offset="1" stop-color="#F87000"/>
</linearGradient>
</defs>
</svg>
