<svg width="420" height="105" viewBox="0 0 420 105" fill="none" xmlns="http://www.w3.org/2000/svg">
<path d="M93.208 103L108.421 11.3638H170.974L167.931 29.351H127.527L124.484 48.1436H160.906L157.864 66.1756H121.442L115.356 103H93.208Z" fill="currentColor"/>
<path d="M192.666 11.3638L177.453 103H155.573L170.786 11.3638H192.666Z" fill="currentColor"/>
<path d="M199.235 104.163C194.88 104.163 191.121 103.433 187.959 101.971C184.827 100.48 182.53 98.2274 181.069 95.2146C179.637 92.2018 179.294 88.4433 180.04 83.9391C180.696 80.1209 181.904 76.9142 183.664 74.319C185.454 71.694 187.646 69.5612 190.241 67.9206C192.866 66.28 195.79 65.0271 199.011 64.1621C202.233 63.297 205.604 62.7153 209.124 62.417C213.061 62.0591 216.253 61.6713 218.699 61.2537C221.175 60.8361 223.024 60.2544 224.247 59.5087C225.47 58.7331 226.216 57.6592 226.484 56.2871V56.0633C226.842 53.7665 226.35 51.9916 225.008 50.7388C223.665 49.4859 221.652 48.8595 218.967 48.8595C216.104 48.8595 213.658 49.4859 211.629 50.7388C209.601 51.9916 208.184 53.7217 207.379 55.9291L187.333 55.2132C188.586 51.0371 190.734 47.3084 193.776 44.0271C196.819 40.716 200.682 38.1209 205.365 36.2416C210.078 34.3325 215.522 33.378 221.697 33.378C226.052 33.378 229.989 33.9 233.509 34.944C237.029 35.9582 239.997 37.4497 242.413 39.4185C244.859 41.3574 246.604 43.7437 247.648 46.5775C248.692 49.4114 248.916 52.6479 248.32 56.2871L240.489 103H219.907L221.518 93.4249H220.981C219.37 95.7516 217.476 97.7203 215.298 99.3311C213.151 100.942 210.734 102.15 208.05 102.955C205.365 103.761 202.427 104.163 199.235 104.163ZM208.452 89.8453C210.749 89.8453 212.927 89.368 214.985 88.4135C217.043 87.4589 218.773 86.1464 220.175 84.476C221.607 82.7757 222.517 80.807 222.905 78.5697L223.934 72.0371C223.307 72.3652 222.517 72.6635 221.562 72.932C220.608 73.2004 219.594 73.454 218.52 73.6926C217.446 73.9014 216.342 74.1102 215.209 74.319C214.105 74.498 213.046 74.6621 212.032 74.8112C209.884 75.1393 208.02 75.6464 206.439 76.3325C204.858 77.0186 203.59 77.9135 202.636 79.0172C201.711 80.091 201.144 81.3737 200.935 82.8652C200.577 85.1024 201.099 86.8325 202.501 88.0555C203.903 89.2487 205.887 89.8453 208.452 89.8453Z" fill="currentColor"/>
<path d="M242.662 103L254.117 34.2729H274.923L272.865 46.8908H273.625C275.713 42.7146 278.666 39.4185 282.485 37.0023C286.303 34.5861 290.568 33.378 295.281 33.378C300.024 33.378 303.887 34.601 306.87 37.047C309.883 39.493 311.509 42.7743 311.747 46.8908H312.463C314.432 42.8041 317.475 39.5378 321.591 37.0918C325.737 34.6159 330.361 33.378 335.462 33.378C341.905 33.378 346.812 35.466 350.183 39.6422C353.583 43.7885 354.672 49.4859 353.449 56.7345L345.753 103H323.918L330.898 61.7459C331.375 58.3155 330.868 55.7054 329.377 53.9156C327.915 52.096 325.782 51.1862 322.978 51.1862C319.965 51.1862 317.445 52.1557 315.416 54.0946C313.418 56.0335 312.18 58.6585 311.703 61.9696L304.767 103H283.693L290.717 61.5222C291.165 58.3304 290.673 55.8098 289.241 53.9604C287.839 52.1109 285.706 51.1862 282.842 51.1862C280.963 51.1862 279.218 51.6486 277.607 52.5733C275.997 53.4682 274.639 54.7508 273.536 56.4213C272.462 58.0918 271.761 60.0605 271.433 62.3275L264.542 103H242.662Z" fill="currentColor"/>
<path d="M379.784 104.298C372.595 104.298 366.629 102.881 361.886 100.047C357.173 97.1834 353.862 93.1116 351.953 87.8318C350.044 82.5221 349.701 76.2132 350.924 68.905C352.117 61.8055 354.548 55.601 358.217 50.2913C361.916 44.9518 366.569 40.8055 372.177 37.8524C377.785 34.8695 384.034 33.378 390.925 33.378C395.817 33.378 400.157 34.1386 403.946 35.6599C407.734 37.1812 410.866 39.4483 413.342 42.4611C415.818 45.444 417.503 49.1131 418.398 53.4682C419.293 57.8233 419.263 62.8197 418.309 68.4575L417.458 73.9163H357.77L359.783 61.2089H399.158C399.516 58.8822 399.322 56.8091 398.576 54.9895C397.831 53.1699 396.622 51.753 394.952 50.7388C393.311 49.6947 391.298 49.1727 388.912 49.1727C386.495 49.1727 384.228 49.7395 382.11 50.873C380.022 51.9767 378.247 53.4682 376.786 55.3474C375.324 57.2267 374.37 59.3446 373.922 61.7011L371.551 74.7217C371.074 77.6152 371.208 80.091 371.953 82.1493C372.699 84.2075 373.982 85.7885 375.801 86.8922C377.621 87.966 379.963 88.503 382.826 88.503C384.735 88.503 386.525 88.2494 388.196 87.7423C389.866 87.2054 391.358 86.4149 392.67 85.3709C394.012 84.297 395.101 82.9994 395.936 81.4781L415.892 82.0598C414.282 86.5641 411.791 90.4866 408.42 93.8276C405.049 97.1386 400.933 99.7189 396.071 101.568C391.238 103.388 385.809 104.298 379.784 104.298Z" fill="currentColor"/>
<g opacity="0.6">
<path d="M60.4144 34.2834C58.7515 29.1812 60.0019 22.4318 65.3675 22.3364C68.1653 22.2867 70.9717 23.5077 73.3489 25.9993L90.1678 43.6285C94.829 48.5143 96.7795 53.0313 94.9991 58.5188L88.5748 78.3188C86.7944 83.8063 81.688 87.5215 75.9264 87.5215H55.1371C49.3754 87.5215 44.2691 83.8062 42.4886 78.3188L36.0644 58.5188C33.5971 50.9145 45.7002 50.5691 50.2504 57.1423L52.9287 61.0114C54.9974 63.9999 59.5524 63.5192 60.9517 60.1646L64.7289 51.1092C65.1524 50.094 65.1978 48.9607 64.857 47.9148L60.4144 34.2834Z" fill="url(#paint0_linear_12644_261)"/>
</g>
<path d="M56.1858 19.0523C58.8373 10.9166 56.8435 0.154374 48.288 0.00232682C43.8267 -0.0769576 39.3518 1.86992 35.5614 5.84296L8.74301 33.9533C1.31046 41.7439 -1.79962 48.9465 1.03936 57.6965L11.2831 89.2683C14.122 98.0182 22.2643 103.942 31.4515 103.942H64.6008C73.7879 103.942 81.9302 98.0182 84.7692 89.2683L95.0129 57.6965C98.947 45.5711 79.6483 45.0203 72.3927 55.5016L68.1221 61.671C64.8234 66.4363 57.5604 65.6697 55.3292 60.3208L49.3062 45.8817C48.6309 44.2629 48.5585 42.4556 49.102 40.788L56.1858 19.0523Z" fill="url(#paint1_linear_12644_261)"/>
<defs>
<linearGradient id="paint0_linear_12644_261" x1="94.7924" y1="41.2165" x2="39.1394" y2="77.9406" gradientUnits="userSpaceOnUse">
<stop stop-color="#FF0000"/>
<stop offset="1" stop-color="#F87000"/>
</linearGradient>
<linearGradient id="paint1_linear_12644_261" x1="1.36893" y1="30.1073" x2="90.1096" y2="88.6653" gradientUnits="userSpaceOnUse">
<stop stop-color="#FF0000"/>
<stop offset="1" stop-color="#F87000"/>
</linearGradient>
</defs>
</svg>
