<svg width="570" height="97" viewBox="0 0 570 97" fill="none" xmlns="http://www.w3.org/2000/svg">
<path d="M168.625 1.97605H200.057L212.957 54.6654H214.047L244.389 1.97605H275.821L260.377 95H235.668L244.57 41.2205H243.844L214.41 94.2733H199.512L187.702 40.8572H186.976L177.891 95H153.182L168.625 1.97605ZM295.725 96.2718C288.276 96.2718 282.099 94.8486 277.193 92.0022C272.288 89.1254 268.836 85.0072 266.837 79.6474C264.839 74.2574 264.475 67.8075 265.747 60.2977C266.958 53.0908 269.456 46.7923 273.242 41.4022C277.057 36.0122 281.857 31.8182 287.64 28.8204C293.454 25.8225 299.965 24.3236 307.172 24.3236C312.441 24.3236 317.059 25.1412 321.025 26.7764C325.023 28.4116 328.278 30.7886 330.791 33.9076C333.304 37.0266 335 40.7966 335.878 45.2177C336.787 49.6084 336.787 54.5746 335.878 60.116L334.97 65.93H272.651L274.831 52.1218H314.076C314.379 50.1232 314.182 48.3669 313.485 46.8528C312.819 45.3085 311.744 44.1124 310.26 43.2645C308.807 42.3864 307.051 41.9473 304.992 41.9473C302.932 41.9473 300.994 42.3864 299.178 43.2645C297.391 44.1427 295.862 45.3691 294.59 46.9437C293.348 48.5183 292.516 50.3655 292.092 52.4851L289.366 67.0201C289.003 69.261 289.139 71.2595 289.775 73.0158C290.411 74.7721 291.516 76.1499 293.091 77.1492C294.666 78.1485 296.694 78.6481 299.178 78.6481C300.873 78.6481 302.478 78.421 303.992 77.9668C305.537 77.4823 306.899 76.7858 308.08 75.8774C309.291 74.9387 310.26 73.8031 310.987 72.4708H333.88C332.245 77.3158 329.656 81.5249 326.113 85.098C322.6 88.6409 318.27 91.3965 313.122 93.3648C308.004 95.3028 302.206 96.2718 295.725 96.2718ZM383.297 25.232L380.209 43.4008H334.242L337.331 25.232H383.297ZM348.958 8.5168H374.031L363.403 72.5616C363.251 73.5306 363.282 74.3482 363.493 75.0144C363.705 75.6503 364.129 76.1348 364.765 76.4679C365.431 76.7707 366.31 76.9221 367.4 76.9221C368.127 76.9221 369.02 76.8313 370.08 76.6496C371.14 76.4376 371.942 76.2862 372.487 76.1954L373.214 93.819C371.942 94.1824 370.231 94.5912 368.081 95.0454C365.961 95.5299 363.493 95.8479 360.677 95.9993C354.803 96.2718 350.018 95.651 346.324 94.137C342.66 92.6229 340.116 90.261 338.693 87.0512C337.3 83.8111 337.058 79.7685 337.966 74.9235L348.958 8.5168ZM404.167 96.2718C396.718 96.2718 390.541 94.8486 385.635 92.0022C380.73 89.1254 377.278 85.0072 375.279 79.6474C373.281 74.2574 372.917 67.8075 374.189 60.2977C375.4 53.0908 377.898 46.7923 381.684 41.4022C385.499 36.0122 390.299 31.8182 396.082 28.8204C401.896 25.8225 408.407 24.3236 415.614 24.3236C420.883 24.3236 425.501 25.1412 429.467 26.7764C433.464 28.4116 436.72 30.7886 439.233 33.9076C441.746 37.0266 443.442 40.7966 444.32 45.2177C445.229 49.6084 445.229 54.5746 444.32 60.116L443.412 65.93H381.093L383.273 52.1218H422.518C422.821 50.1232 422.624 48.3669 421.927 46.8528C421.261 45.3085 420.186 44.1124 418.702 43.2645C417.249 42.3864 415.493 41.9473 413.433 41.9473C411.374 41.9473 409.436 42.3864 407.619 43.2645C405.833 44.1427 404.304 45.3691 403.032 46.9437C401.79 48.5183 400.958 50.3655 400.534 52.4851L397.808 67.0201C397.445 69.261 397.581 71.2595 398.217 73.0158C398.853 74.7721 399.958 76.1499 401.533 77.1492C403.108 78.1485 405.136 78.6481 407.619 78.6481C409.315 78.6481 410.92 78.421 412.434 77.9668C413.979 77.4823 415.341 76.7858 416.522 75.8774C417.733 74.9387 418.702 73.8031 419.429 72.4708H442.322C440.687 77.3158 438.098 81.5249 434.555 85.098C431.042 88.6409 426.712 91.3965 421.564 93.3648C416.446 95.3028 410.648 96.2718 404.167 96.2718ZM471.935 96.2718C464.365 96.2718 458.127 94.7729 453.222 91.775C448.346 88.7469 444.925 84.5378 442.956 79.1478C440.988 73.7274 440.594 67.4441 441.775 60.2977C442.956 53.1513 445.424 46.8831 449.179 41.4931C452.934 36.0727 457.764 31.8636 463.669 28.8658C469.573 25.8377 476.326 24.3236 483.927 24.3236C491.467 24.3236 497.674 25.8377 502.55 28.8658C507.455 31.8636 510.892 36.0727 512.86 41.4931C514.859 46.8831 515.268 53.1513 514.087 60.2977C512.906 67.4441 510.423 73.7274 506.638 79.1478C502.853 84.5378 498.008 88.7469 492.103 91.775C486.228 94.7729 479.506 96.2718 471.935 96.2718ZM475.024 77.7397C477.204 77.7397 479.188 77.0281 480.974 75.6049C482.791 74.1817 484.336 72.1528 485.607 69.5183C486.909 66.8839 487.863 63.7498 488.469 60.116C489.075 56.452 489.165 53.3179 488.741 50.7137C488.318 48.0792 487.439 46.0504 486.107 44.6272C484.775 43.2039 483.018 42.4923 480.838 42.4923C478.658 42.4923 476.659 43.2039 474.842 44.6272C473.026 46.0504 471.481 48.0792 470.209 50.7137C468.938 53.3179 467.999 56.452 467.393 60.116C466.788 63.7498 466.682 66.8839 467.075 69.5183C467.499 72.1528 468.377 74.1817 469.71 75.6049C471.072 77.0281 472.844 77.7397 475.024 77.7397ZM508.215 95L519.843 25.232H544.189L542.009 38.4952H542.735C544.825 33.5897 547.444 30.0013 550.593 27.7302C553.743 25.4591 557.18 24.3236 560.904 24.3236C561.994 24.3236 563.039 24.4144 564.038 24.5961C565.068 24.7475 566.082 24.9595 567.081 25.232L563.448 46.6712C562.267 46.2169 560.798 45.899 559.042 45.7173C557.286 45.5053 555.726 45.3993 554.363 45.3993C551.941 45.3993 549.67 45.9595 547.55 47.0799C545.461 48.1701 543.674 49.7144 542.19 51.713C540.737 53.6813 539.768 55.9978 539.283 58.6625L533.288 95H508.215Z" fill="currentColor"/>
<path d="M10.8635 32.9888C6.41679 34.5405 2.18085 37.3106 0.85368 41.8295C-0.28456 45.705 -0.284558 49.8354 0.853684 53.7109C2.18086 58.2297 6.4168 60.9999 10.8635 62.5515L73.6512 84.4609C78.0979 86.0126 81.7554 89.2031 85.6453 91.8582C90.9451 95.4756 97.7427 96.5683 104.097 94.5066L135.501 84.3174C144.204 81.4936 150.097 73.3947 150.097 64.2565L150.097 31.2839C150.097 22.1457 144.204 14.0468 135.501 11.2229L104.097 1.03382C97.7427 -1.02796 90.9451 0.0647406 85.6453 3.68218C81.7554 6.33731 78.0979 9.52781 73.6512 11.0795L10.8635 32.9888Z" fill="url(#paint0_linear_12644_263)"/>
<path d="M61.0651 35.372C55.6862 42.7649 55.6862 52.7757 61.0651 60.1686L80.4736 86.8441C85.8525 94.237 95.3869 97.3305 104.09 94.5067L135.494 84.3175C144.197 81.4937 150.09 73.3948 150.09 64.2566L150.09 31.284C150.09 22.1458 144.197 14.0469 135.494 11.223L104.09 1.03391C95.3869 -1.78994 85.8525 1.30358 80.4736 8.69652L61.0651 35.372Z" fill="url(#paint1_linear_12644_263)"/>
<path d="M85.8046 40.9653C82.767 45.1403 82.767 50.7937 85.8046 54.9687L96.7652 70.0332C99.8028 74.2082 105.187 75.9552 110.102 74.3605L127.837 68.6064C132.752 67.0117 136.08 62.438 136.08 57.2774L136.08 38.6567C136.08 33.4961 132.752 28.9224 127.837 27.3277L110.102 21.5736C105.187 19.9789 99.8028 21.7259 96.7652 25.9009L85.8046 40.9653Z" fill="url(#paint2_linear_12644_263)"/>
<defs>
<linearGradient id="paint0_linear_12644_263" x1="20.8049" y1="72.8524" x2="158.503" y2="50.2444" gradientUnits="userSpaceOnUse">
<stop stop-color="#FF0000" stop-opacity="0.6"/>
<stop offset="1" stop-color="#F87000" stop-opacity="0.6"/>
</linearGradient>
<linearGradient id="paint1_linear_12644_263" x1="2.15072" y1="27.6736" x2="90.2293" y2="127.018" gradientUnits="userSpaceOnUse">
<stop stop-color="#FF0000"/>
<stop offset="1" stop-color="#F87000"/>
</linearGradient>
<linearGradient id="paint2_linear_12644_263" x1="98.7486" y1="21.7629" x2="133.107" y2="68.3771" gradientUnits="userSpaceOnUse">
<stop stop-color="#F87000"/>
<stop offset="1" stop-color="#FF0000"/>
</linearGradient>
</defs>
</svg>
